<svg xmlns="http://www.w3.org/2000/svg" width="980" height="300" viewBox="0 0 980 300">
<rect width="100%" height="100%" fill="#ffffff"/>
<text x="24" y="36" font-family="Arial, sans-serif" font-size="22" font-weight="700" fill="#17212b">Daily AWS Spend</text>
<line x1="70" y1="255" x2="950" y2="255" stroke="#cbd5e1"/>
<line x1="70" y1="60" x2="70" y2="255" stroke="#cbd5e1"/>
<polyline fill="none" stroke="#1c7f72" stroke-width="3" points="70.0,244.9 79.9,244.9 89.8,244.9 99.7,244.4 109.6,244.0 119.4,244.7 129.3,242.9 139.2,235.9 149.1,236.4 159.0,190.9 168.9,233.8 178.8,234.3 188.7,234.9 198.5,234.9 208.4,234.9 218.3,234.8 228.2,191.9 238.1,234.4 248.0,234.5 257.9,234.2 267.8,234.9 277.6,234.8 287.5,232.3 297.4,232.4 307.3,229.5 317.2,228.9 327.1,231.6 337.0,229.5 346.9,226.7 356.7,227.2 366.6,228.9 376.5,230.1 386.4,230.0 396.3,230.8 406.2,230.8 416.1,229.9 426.0,208.6 435.8,208.1 445.7,204.2 455.6,193.4 465.5,195.1 475.4,218.1 485.3,212.0 495.2,211.3 505.1,217.0 514.9,215.7 524.8,144.7 534.7,217.0 544.6,216.1 554.5,182.8 564.4,206.6 574.3,206.4 584.2,199.7 594.0,211.1 603.9,203.6 613.8,208.8 623.7,110.1 633.6,184.0 643.5,179.4 653.4,196.1 663.3,186.6 673.1,87.0 683.0,148.5 692.9,60.0 702.8,188.1 712.7,127.0 722.6,174.0 732.5,208.9 742.4,168.0 752.2,143.1 762.1,165.0 772.0,163.5 781.9,174.8 791.8,203.8 801.7,185.6 811.6,137.4 821.5,185.6 831.3,151.2 841.2,182.0 851.1,97.4 861.0,156.0 870.9,178.6 880.8,104.0 890.7,110.2 900.6,172.5 910.4,179.8 920.3,179.2 930.2,184.7 940.1,150.8 950.0,188.2"/>
<text x="24" y="68" font-family="Arial, sans-serif" font-size="12" fill="#475569">$1,851</text>
<text x="24" y="255" font-family="Arial, sans-serif" font-size="12" fill="#475569">$0</text>
<text x="70" y="282" font-family="Arial, sans-serif" font-size="12" fill="#475569">2026-03-16</text>
<text x="820" y="282" font-family="Arial, sans-serif" font-size="12" fill="#475569">2026-06-13</text>
</svg>
